<?xml version="1.0" encoding="utf-8"?>
<!-- Generator: Adobe Illustrator 21.1.0, SVG Export Plug-In . SVG Version: 6.00 Build 0)  -->
<svg version="1.1" id="Capa_1" xmlns="http://www.w3.org/2000/svg" xmlns:xlink="http://www.w3.org/1999/xlink" x="0px" y="0px"
	 width="279px" height="279px" viewBox="0 0 279 279" style="enable-background:new 0 0 279 279;" xml:space="preserve">
<style type="text/css">
	.st0{fill:none;stroke:#333333;stroke-width:1.4173;stroke-miterlimit:10;}
	.st1{fill:none;stroke:#333333;stroke-width:0.5669;stroke-miterlimit:10;}
</style>
<g>
	<path class="st0" d="M140.3,111h8.1l24.7,8.9c0,0,3.9,0.5,4.8,0.6c0.9,0.1,16.7-4.7,16.7-4.7l20.4,0l-8.4,21.6l-19.4,12.1h-8.1
		l-9,40.5l-11.5,11.6l-5.4,16.6h-12.9V111z"/>
	<polygon class="st0" points="140.3,111 165,60.6 231.4,60.6 256.6,110.9 256.6,134.7 227.2,172.9 201.4,161.9 225.9,161.6 
		241.1,135.2 241.4,111 215,95.9 190.8,96.1 176.5,120.3 148.4,111 	"/>
	<path class="st1" d="M140.3,111c0,1.8,0,107.1,0,107.1h-6.6l-9.4-17.1l-4.9-44.1l-16-15.6L86,115.7l18.3,4.2l27.9-8.9H140.3z"/>
	<polyline class="st1" points="115.3,61.1 103.5,120.4 89.8,96.1 49.2,60.6 65.6,95.9 39.3,111 24,110.9 39.5,135.2 24,134.7 
		53.4,172.9 54.7,161.6 	"/>
	<path class="st0" d="M140.3,111h-8.1l-24.7,8.9c0,0-3.9,0.5-4.8,0.6c-0.9,0.1-16.7-4.7-16.7-4.7l-20.4,0l8.4,21.6l19.4,12.1h8.1
		l9,40.5l11.5,11.6l5.4,16.6h12.9V111z"/>
	<polygon class="st0" points="140.3,111 115.6,60.6 49.2,60.6 24,110.9 24,134.7 53.4,172.9 79.2,161.9 54.7,161.6 39.5,135.2 
		39.3,111 65.6,95.9 89.8,96.1 104.1,120.3 132.2,111 	"/>
	<path class="st1" d="M140.3,111c0,1.8,0,107.1,0,107.1h6.6l9.4-17.1l4.9-44.1l16-15.6l17.4-25.6l-18.3,4.2l-27.9-8.9H140.3z"/>
	<polyline class="st1" points="165.3,61.1 177.1,120.4 190.8,96.1 231.4,60.6 215,95.9 241.4,111 256.6,110.9 241.1,135.2 
		256.6,134.7 227.2,172.9 225.9,161.6 	"/>
</g>
</svg>
