<?xml version="1.0" encoding="utf-8"?>
<!-- Generator: Adobe Illustrator 21.1.0, SVG Export Plug-In . SVG Version: 6.00 Build 0)  -->
<svg version="1.1" id="Capa_1" xmlns="http://www.w3.org/2000/svg" xmlns:xlink="http://www.w3.org/1999/xlink" x="0px" y="0px"
	 width="279px" height="279px" viewBox="0 0 279 279" style="enable-background:new 0 0 279 279;" xml:space="preserve">
<style type="text/css">
	.st0{fill:none;stroke:#333333;stroke-width:1.4173;stroke-linecap:square;stroke-linejoin:bevel;stroke-miterlimit:10;}
	.st1{fill:none;stroke:#333333;stroke-width:0.5669;stroke-linejoin:bevel;stroke-miterlimit:10;}
	.st2{fill:none;stroke:#333333;stroke-width:0.6658;stroke-linejoin:bevel;stroke-miterlimit:10;}
	.st3{fill:none;stroke:#333333;stroke-width:1.4173;stroke-linejoin:bevel;stroke-miterlimit:10;}
</style>
<g>
	<polyline class="st0" points="139.7,105.8 165.5,49.4 203.3,29.4 234.8,26 210.4,39.4 187.3,65.9 179.9,95.3 179.9,114.9 
		199.9,114.9 241.5,131.6 218.1,140.7 188.5,140.7 190.6,147.4 170.3,194.2 162.7,224.8 139.7,243.4 	"/>
	<polyline class="st1" points="40.2,130.7 99.6,114.9 139.7,105.8 99.6,95.3 113.9,49.4 	"/>
	<line class="st1" x1="99.6" y1="114.9" x2="91" y2="140.7"/>
	<polyline class="st1" points="88.8,147.4 113,159.3 139.7,159.3 	"/>
	<line class="st2" x1="139.7" y1="105.8" x2="139.7" y2="243.4"/>
	<line class="st1" x1="109.1" y1="194.2" x2="139.7" y2="222.8"/>
	<polyline class="st0" points="139.7,105.8 113.9,49.4 76.2,29.4 44.7,26 69,39.4 92.2,65.9 99.6,95.3 99.6,114.9 79.5,114.9 
		38,131.6 61.4,140.7 91,140.7 88.8,147.4 109.1,194.2 116.8,224.8 139.7,243.4 	"/>
	<polyline class="st1" points="239.3,130.7 179.9,114.9 139.7,105.8 179.9,95.3 165.5,49.4 	"/>
	<line class="st1" x1="179.9" y1="114.9" x2="188.5" y2="140.7"/>
	<polyline class="st1" points="190.6,147.4 166.5,159.3 139.7,159.3 	"/>
	<line class="st3" x1="139.7" y1="105.8" x2="139.7" y2="243.4"/>
	<line class="st1" x1="170.3" y1="194.2" x2="139.7" y2="222.8"/>
</g>
</svg>
