<?xml version="1.0" encoding="utf-8"?>
<!-- Generator: Adobe Illustrator 21.1.0, SVG Export Plug-In . SVG Version: 6.00 Build 0)  -->
<svg version="1.1" id="Capa_1" xmlns="http://www.w3.org/2000/svg" xmlns:xlink="http://www.w3.org/1999/xlink" x="0px" y="0px"
	 width="279px" height="279px" viewBox="0 0 279 279" style="enable-background:new 0 0 279 279;" xml:space="preserve">
<style type="text/css">
	.st0{fill:none;stroke:#333333;stroke-width:1.4173;stroke-linecap:square;stroke-linejoin:bevel;stroke-miterlimit:10;}
	.st1{fill:none;stroke:#333333;stroke-width:0.5669;stroke-linejoin:bevel;stroke-miterlimit:10;}
	.st2{fill:none;stroke:#333333;stroke-width:0.6708;stroke-linejoin:bevel;stroke-miterlimit:10;}
</style>
<g>
	<polyline class="st0" points="258.4,91.4 191.6,57.4 85.6,83.9 47.3,64.5 47.3,91.4 	"/>
	<line class="st0" x1="191.3" y1="57.8" x2="137.2" y2="91.4"/>
	<polyline class="st1" points="258.4,91.4 97.4,91.4 85.6,99 	"/>
	<polyline class="st1" points="191.6,125.5 222.6,91.4 225,108.5 	"/>
	<line class="st2" x1="97.4" y1="91.4" x2="47.3" y2="91.4"/>
	<polyline class="st0" points="258.4,91.4 191.6,125.5 85.6,99 47.3,118.4 47.3,91.4 	"/>
	<line class="st0" x1="191.3" y1="125.1" x2="137.2" y2="91.4"/>
	<polyline class="st0" points="21.7,177.7 88.5,143.7 194.5,170.2 232.8,150.8 232.8,177.7 	"/>
	<line class="st0" x1="88.8" y1="144.1" x2="142.9" y2="177.7"/>
	<polyline class="st1" points="21.7,177.7 182.7,177.7 194.5,185.3 	"/>
	<polyline class="st1" points="88.5,211.8 57.5,177.7 55.1,194.8 	"/>
	<line class="st2" x1="182.7" y1="177.7" x2="232.8" y2="177.7"/>
	<polyline class="st0" points="21.7,177.7 88.5,211.8 194.5,185.3 232.8,204.7 232.8,177.7 	"/>
	<line class="st0" x1="88.8" y1="211.4" x2="142.9" y2="177.7"/>
	<polyline class="st1" points="258.4,91.4 97.4,91.4 85.6,83.9 	"/>
	<polyline class="st1" points="191.6,57.4 222.6,91.4 225,74.4 	"/>
	<line class="st1" x1="97.4" y1="91.4" x2="47.3" y2="91.4"/>
	<polyline class="st1" points="21.7,177.7 182.7,177.7 194.5,170.2 	"/>
	<polyline class="st1" points="88.5,143.7 57.5,177.7 55.1,160.7 	"/>
	<line class="st1" x1="182.7" y1="177.7" x2="232.8" y2="177.7"/>
</g>
</svg>
