<?xml version="1.0" encoding="utf-8"?>
<!-- Generator: Adobe Illustrator 21.1.0, SVG Export Plug-In . SVG Version: 6.00 Build 0)  -->
<svg version="1.1" id="Capa_1" xmlns="http://www.w3.org/2000/svg" xmlns:xlink="http://www.w3.org/1999/xlink" x="0px" y="0px"
	 width="279px" height="279px" viewBox="0 0 279 279" style="enable-background:new 0 0 279 279;" xml:space="preserve">
<style type="text/css">
	.st0{fill:none;stroke:#333333;stroke-width:1.4173;stroke-miterlimit:10;}
	.st1{fill:none;stroke:#333333;stroke-width:0.5669;stroke-miterlimit:10;}
</style>
<polygon class="st0" points="139.8,91.4 174.8,91.4 188.8,84 199.2,39.2 216.9,65.3 216.9,93.9 200.2,112.4 221.7,112.4 
	231.3,121.6 211.8,139 190,136.8 190,179.6 170.3,206.5 167,218.9 151,232.3 139.8,232.3 "/>
<polyline class="st1" points="139.8,92.4 139.8,232.3 128.7,232.3 112.7,218.9 109.4,206.5 129.2,160.3 90.1,136.3 "/>
<polygon class="st0" points="139.8,91.4 104.9,91.4 90.9,84 80.5,39.2 62.8,65.3 62.8,93.9 79.5,112.4 58,112.4 48.3,121.6 
	67.8,139 89.6,136.8 89.6,179.6 109.4,206.5 112.7,218.9 128.7,232.3 139.8,232.3 "/>
<polyline class="st1" points="139.8,92.4 139.8,232.3 151,232.3 167,218.9 170.3,206.5 150.5,160.3 189.5,136.3 "/>
</svg>
