<?xml version="1.0" encoding="utf-8"?>
<!-- Generator: Adobe Illustrator 21.1.0, SVG Export Plug-In . SVG Version: 6.00 Build 0)  -->
<svg version="1.1" id="Capa_1" xmlns="http://www.w3.org/2000/svg" xmlns:xlink="http://www.w3.org/1999/xlink" x="0px" y="0px"
	 width="279px" height="279px" viewBox="0 0 279 279" style="enable-background:new 0 0 279 279;" xml:space="preserve">
<style type="text/css">
	.st0{fill:none;stroke:#333333;stroke-width:0.5669;stroke-miterlimit:10;}
	.st1{fill:none;stroke:#333333;stroke-width:1.4173;stroke-miterlimit:10;}
</style>
<polygon class="st0" points="148.6,41.3 226.4,75.1 228.5,129.4 215.8,137.7 226.4,163.6 210.1,168.3 213,183.9 200.1,184.9 
	211.4,191.3 202.9,212.6 170.2,203.4 150.5,227.6 107.3,171.1 125.7,135.7 86.9,107.4 109,41.3 "/>
<polygon class="st1" points="132.8,41.3 55.3,75.1 53.2,129.4 65.8,137.7 55.3,163.6 71.6,168.3 68.6,183.9 81.6,184.9 70.3,191.3 
	78.8,212.6 111.4,203.4 131.2,227.6 174.4,171.1 156,135.7 194.8,107.4 172.3,41.8 "/>
</svg>
