<?xml version="1.0" encoding="utf-8"?>
<!-- Generator: Adobe Illustrator 21.1.0, SVG Export Plug-In . SVG Version: 6.00 Build 0)  -->
<svg version="1.1" id="Capa_1" xmlns="http://www.w3.org/2000/svg" xmlns:xlink="http://www.w3.org/1999/xlink" x="0px" y="0px"
	 width="279px" height="279px" viewBox="0 0 279 279" style="enable-background:new 0 0 279 279;" xml:space="preserve">
<style type="text/css">
	.st0{fill:none;stroke:#333333;stroke-width:1.4173;stroke-miterlimit:10;}
	.st1{fill:none;stroke:#333333;stroke-width:1.4173;stroke-linecap:square;stroke-linejoin:bevel;stroke-miterlimit:10;}
	.st2{fill:none;stroke:#333333;stroke-width:0.5669;stroke-linejoin:bevel;stroke-miterlimit:10;}
</style>
<g>
	<polygon class="st0" points="140,107.9 167.9,109 183.8,122.2 194.2,135.5 182.8,156.7 171.1,166 154.7,175.5 140,173.9 	"/>
	<polygon class="st0" points="153.9,71.8 165.8,73.3 162.5,60.4 183.3,72.1 183.3,83 203.5,115.1 194.2,135.5 184.8,123.5 
		188.4,107.9 172.7,90.9 163.4,88.4 	"/>
	<polyline class="st1" points="194.2,135.5 235,116.9 244.6,116.9 252.3,120.9 257.6,141.7 248.8,127.3 243.3,124.1 208.2,143.7 
		242.7,145 251.5,156.7 253.9,175.5 246.2,159.6 236.9,154.8 204.8,153.2 224.4,175.5 231.1,192.2 222.6,202.8 224.7,191.4 
		219.7,177.4 198.7,169.2 205.6,194.4 197.6,209.7 197.4,192.2 188.6,178.4 154.7,175.5 	"/>
	<polyline class="st2" points="112.1,109 123.6,141.7 106.6,151.2 125.4,175.5 80.9,169.4 107.6,164.9 75.3,153.2 97.3,156.7 
		71.8,143.7 85.4,135.5 	"/>
	<polygon class="st0" points="140,107.9 112.1,109 96.2,122.2 85.9,135.5 97.3,156.7 109,166 125.4,175.5 140,173.9 	"/>
	<polygon class="st0" points="126.2,71.8 114.3,73.3 117.6,60.4 96.8,72.1 96.8,83 76.6,115.1 85.9,135.5 95.2,123.5 91.7,107.9 
		107.4,90.9 116.7,88.4 	"/>
	<polyline class="st1" points="85.9,135.5 45,116.9 35.5,116.9 27.8,120.9 22.5,141.7 31.3,127.3 36.8,124.1 71.8,143.7 37.4,145 
		28.6,156.7 26.2,175.5 33.9,159.6 43.2,154.8 75.3,153.2 55.7,175.5 49,192.2 57.5,202.8 55.4,191.4 60.4,177.4 81.4,169.2 
		74.5,194.4 82.4,209.7 82.7,192.2 91.4,178.4 125.4,175.5 	"/>
	<polyline class="st2" points="167.9,109 156.4,141.7 173.5,151.2 154.7,175.5 199.2,169.4 172.5,164.9 204.8,153.2 182.8,156.7 
		208.2,143.7 194.7,135.5 	"/>
</g>
</svg>
