<?xml version="1.0" encoding="utf-8"?>
<!-- Generator: Adobe Illustrator 21.1.0, SVG Export Plug-In . SVG Version: 6.00 Build 0)  -->
<svg version="1.1" id="Capa_1" xmlns="http://www.w3.org/2000/svg" xmlns:xlink="http://www.w3.org/1999/xlink" x="0px" y="0px"
	 width="279px" height="279px" viewBox="0 0 279 279" style="enable-background:new 0 0 279 279;" xml:space="preserve">
<style type="text/css">
	.st0{fill:none;stroke:#333333;stroke-width:1.4173;stroke-linejoin:bevel;stroke-miterlimit:10;}
	.st1{fill:none;stroke:#333333;stroke-width:0.5669;stroke-linejoin:bevel;stroke-miterlimit:10;}
</style>
<g>
	<line class="st0" x1="140.7" y1="129.3" x2="157.8" y2="188.9"/>
	<polyline class="st1" points="123.5,188.9 135.4,188.9 140.7,184.6 140.7,129.8 	"/>
	<polyline class="st1" points="93.9,55.1 107.4,77.1 77.5,78 	"/>
	<polyline class="st1" points="73.2,131.1 93.4,139.8 140.7,129.3 140.7,83.6 	"/>
	<polyline class="st1" points="74.4,153.3 93.4,139.8 82.5,172.9 	"/>
	<polyline class="st1" points="89.8,207.3 110,182.2 103.3,224.7 121.5,197.2 	"/>
	<polygon class="st0" points="208.2,131.1 234.8,90.5 203.9,77.9 217.4,59.2 187.5,55.1 194.9,39.5 156.8,39.5 140.7,49.3 
		124.6,39.5 86.5,39.5 93.9,55.1 63.9,59.2 77.5,77.9 46.6,90.5 73.2,131.1 53.9,150.1 74.4,153.3 65.2,165 82.5,172.9 73.9,207.3 
		89.8,207.3 103.3,224.7 118.3,219.4 140.7,229.9 163,219.4 178,224.7 191.6,207.3 207.4,207.3 198.8,172.9 216.1,165 206.9,153.3 
		227.5,150.1 	"/>
	<polygon class="st0" points="173.9,77.1 147.8,79.1 140.7,83.6 133.5,79.1 107.4,77.1 90.3,100.4 93.4,139.8 109.5,168.4 
		110,182.2 123.5,188.9 121.2,198.4 140.7,208.3 160.1,198.4 157.8,188.9 171.4,182.2 171.9,168.4 188,139.8 191.1,100.4 	"/>
	<line class="st0" x1="140.7" y1="129.3" x2="123.5" y2="188.9"/>
	<polyline class="st1" points="157.8,188.9 146,188.9 140.7,184.6 140.7,129.8 	"/>
	<polyline class="st1" points="187.5,55.1 173.9,77.1 203.9,78 	"/>
	<polyline class="st1" points="208.2,131.1 188,139.8 140.7,129.3 140.7,83.6 	"/>
	<polyline class="st1" points="206.9,153.3 188,139.8 198.8,172.9 	"/>
	<polyline class="st1" points="191.6,207.3 171.4,182.2 178,224.7 159.8,197.2 	"/>
</g>
</svg>
