<?xml version="1.0" encoding="utf-8"?>
<!-- Generator: Adobe Illustrator 21.1.0, SVG Export Plug-In . SVG Version: 6.00 Build 0)  -->
<svg version="1.1" id="Capa_1" xmlns="http://www.w3.org/2000/svg" xmlns:xlink="http://www.w3.org/1999/xlink" x="0px" y="0px"
	 width="279px" height="279px" viewBox="0 0 279 279" style="enable-background:new 0 0 279 279;" xml:space="preserve">
<style type="text/css">
	.st0{fill:none;stroke:#333333;stroke-width:1.4173;stroke-linejoin:bevel;stroke-miterlimit:10;}
	.st1{fill:none;stroke:#333333;stroke-width:0.5669;stroke-linejoin:bevel;stroke-miterlimit:10;}
</style>
<g>
	<polyline class="st0" points="130,234.8 194.5,234.8 229.2,71.6 170,47.2 138.2,62.2 132,95.2 116.1,108.8 125.8,121.6 
		117.1,127.5 121.6,130.8 118,134.6 123.8,139.1 121.3,154.9 154.2,156.7 152.5,189 96.2,219 	"/>
	<g>
		<polyline class="st0" points="96.2,219 69.6,167.1 68,122.5 81.8,75.1 103.4,44.2 113.4,38.3 		"/>
		<polyline class="st0" points="78.8,185.1 82.4,180.6 89.5,182.8 96.4,175.9 97.1,165 88.1,165 79.6,171 80.1,178.7 77.5,182.4 		
			"/>
		<polyline class="st0" points="78.1,182.5 73.4,181.7 69.1,174.5 61.5,172.8 52.2,178.6 57.3,186 67.1,189.4 73.2,184.6 
			78.8,185.1 		"/>
		<polyline class="st0" points="68.6,119.6 73.2,118.3 76.9,123.4 85,122.1 90.9,115 84.8,110.6 76,110.5 72.6,115.9 69,117.1 		"/>
		<polyline class="st0" points="69.4,117.5 66.6,114.6 67.2,107.6 62.9,102.8 53.8,102 53.6,109.6 58.5,116.7 65,116.5 68.6,119.6 
					"/>
		<polyline class="st1" points="90.9,61.8 94.1,62.3 95,66.3 100.3,67.8 105.8,65 103.3,60.6 98,58.2 94.3,60.6 91.8,60.3 		"/>
		<polyline class="st1" points="92,60.7 91,58.1 93.3,54 92,49.9 86.6,46.9 84.5,51.5 85.5,57.3 89.5,58.9 90.9,61.8 		"/>
		<polyline class="st1" points="105.8,42.5 107.2,43.7 106.4,46 108.6,48.3 112.2,48.6 112.3,45.7 110.4,42.9 107.8,43 106.7,42.1 
					"/>
		<polyline class="st1" points="106.6,42.3 106.9,40.8 109.3,39.4 109.9,37 108.1,33.9 105.7,35.5 104.5,38.7 106,40.7 105.8,42.5 
					"/>
	</g>
	<line class="st1" x1="132" y1="95.2" x2="148.5" y2="93.8"/>
	<polyline class="st1" points="194.5,234.8 138.2,62.2 205,185.3 149.3,57 214.3,141.7 170,47.2 221.8,106.6 205,61.7 226.4,84.6 	
		"/>
</g>
</svg>
