<?xml version="1.0" encoding="utf-8"?>
<!-- Generator: Adobe Illustrator 21.1.0, SVG Export Plug-In . SVG Version: 6.00 Build 0)  -->
<svg version="1.1" id="Capa_1" xmlns="http://www.w3.org/2000/svg" xmlns:xlink="http://www.w3.org/1999/xlink" x="0px" y="0px"
	 width="279px" height="279px" viewBox="0 0 279 279" style="enable-background:new 0 0 279 279;" xml:space="preserve">
<style type="text/css">
	.st0{fill:none;stroke:#333333;stroke-width:1.4173;stroke-linecap:square;stroke-linejoin:bevel;stroke-miterlimit:10;}
	.st1{fill:none;stroke:#333333;stroke-width:0.5669;stroke-linejoin:bevel;stroke-miterlimit:10;}
	.st2{fill:none;stroke:#333333;stroke-width:0.7087;stroke-linejoin:bevel;stroke-miterlimit:10;}
</style>
<polyline class="st0" points="140.4,58.9 149.3,58.9 149.3,79 249.5,79 210.2,98.1 149.7,81.5 150,108.7 140.4,108.7 160.3,211.7 
	140.4,211.7 "/>
<polygon class="st0" points="210.2,98.1 179.4,155.1 194.9,175.6 227.5,175.6 241.2,154.8 "/>
<polyline class="st1" points="85.8,175.6 70.5,132.5 53.2,175.6 39.6,154.8 70.5,132.5 101.4,155.1 "/>
<polyline class="st0" points="140.4,58.9 131.4,58.9 131.4,79 31.3,79 70.6,98.1 131.1,81.5 130.7,108.7 140.4,108.7 120.5,211.7 
	140.4,211.7 "/>
<polygon class="st0" points="70.6,98.1 101.4,155.1 85.8,175.6 53.2,175.6 39.6,154.8 "/>
<polyline class="st1" points="194.9,175.6 210.3,132.5 227.5,175.6 241.2,154.8 210.3,132.5 179.4,155.1 "/>
<line class="st2" x1="140.1" y1="110.1" x2="140.1" y2="211.7"/>
</svg>
