<?xml version="1.0" encoding="utf-8"?>
<!-- Generator: Adobe Illustrator 21.1.0, SVG Export Plug-In . SVG Version: 6.00 Build 0)  -->
<svg version="1.1" id="Capa_1" xmlns="http://www.w3.org/2000/svg" xmlns:xlink="http://www.w3.org/1999/xlink" x="0px" y="0px"
	 width="279px" height="279px" viewBox="0 0 279 279" style="enable-background:new 0 0 279 279;" xml:space="preserve">
<style type="text/css">
	.st0{fill:none;stroke:#333333;stroke-width:1.4173;stroke-linecap:square;stroke-linejoin:bevel;stroke-miterlimit:10;}
	.st1{fill:none;stroke:#333333;stroke-width:0.5669;stroke-linejoin:bevel;stroke-miterlimit:10;}
</style>
<polygon class="st0" points="175.1,12.6 196.5,37 199.2,57.8 188.8,85.2 179.4,89.6 154.7,86.2 151,94.3 146.7,87.4 150,79.9 
	159,75.9 176.8,79.5 172.7,48.7 161.7,20.3 180.4,34.6 "/>
<polygon class="st0" points="138.6,74.5 151,94.3 155.7,140.4 145,227.4 138.6,227.4 "/>
<polyline class="st0" points="151.2,96.7 169.3,106.2 190,96.7 171.8,114.3 152.9,113.1 179,120.8 194.2,111.1 181,130.5 
	154.3,126.5 177.8,138.7 189.5,130.7 180.5,147.6 155.7,139.4 "/>
<polyline class="st1" points="80.7,37 104.5,48.7 78.1,57.8 "/>
<line class="st1" x1="104.5" y1="48.7" x2="89.2" y2="85.6"/>
<line class="st1" x1="100.5" y1="79.5" x2="97.8" y2="89.6"/>
<polyline class="st1" points="138.6,127.5 121.7,139.3 138.6,164 130.1,199.1 138.6,227.4 "/>
<polygon class="st0" points="102.1,12.6 80.7,37 78.1,57.8 88.4,85.2 97.8,89.6 122.6,86.2 126.2,94.3 130.5,87.4 127.2,79.9 
	118.2,75.9 100.5,79.5 104.5,48.7 115.5,20.3 96.9,34.6 "/>
<polygon class="st0" points="138.6,74.5 126.2,94.3 121.6,140.4 132.3,227.4 138.6,227.4 "/>
<polyline class="st0" points="126,96.7 107.9,106.2 87.3,96.7 105.4,114.3 124.3,113.1 98.2,120.8 83,111.1 96.2,130.5 123,126.5 
	99.4,138.7 87.8,130.7 96.7,147.6 121.6,139.4 "/>
<polygon class="st0" points="168.8,174.8 172,199.9 188.4,190 198.7,197.1 202.1,213.6 201.1,232.5 190.5,247.4 176.6,256.3 
	157.1,256.3 141.9,245.3 132.3,227.4 145,227.4 151.2,239.7 159.7,246.6 174,246.6 183.3,240 191.3,228.5 192.6,214.6 187.5,199.4 
	173.6,214.8 159.9,212.6 154.7,196.4 "/>
<polyline class="st1" points="196.5,37 172.7,48.7 199.2,57.8 "/>
<line class="st1" x1="172.7" y1="48.7" x2="188" y2="85.6"/>
<line class="st1" x1="176.8" y1="79.5" x2="179.4" y2="89.6"/>
<polyline class="st1" points="138.6,127.5 155.6,139.3 138.6,164 147.1,199.1 138.6,227.4 "/>
<polyline class="st1" points="159.9,212.6 171.9,199.1 173.6,214.8 179.8,195.2 187.5,199.4 188.8,190.3 "/>
<polyline class="st1" points="198.7,197.1 192.6,214.6 202.1,213.6 "/>
<polyline class="st1" points="201.1,232.5 191.3,228.5 190.5,247.4 183.3,240 176.6,256.3 174,246.6 157.1,256.3 159.7,246.6 "/>
</svg>
