<?xml version="1.0" encoding="utf-8"?>
<!-- Generator: Adobe Illustrator 21.1.0, SVG Export Plug-In . SVG Version: 6.00 Build 0)  -->
<svg version="1.1" id="Capa_1" xmlns="http://www.w3.org/2000/svg" xmlns:xlink="http://www.w3.org/1999/xlink" x="0px" y="0px"
	 width="279px" height="279px" viewBox="0 0 279 279" style="enable-background:new 0 0 279 279;" xml:space="preserve">
<style type="text/css">
	.st0{fill:none;stroke:#333333;stroke-width:1.4173;stroke-linecap:square;stroke-linejoin:bevel;stroke-miterlimit:10;}
	.st1{fill:none;stroke:#333333;stroke-width:0.5669;stroke-linejoin:bevel;stroke-miterlimit:10;}
</style>
<g>
	<polygon class="st0" points="140,236.6 140,21.5 164.5,64.9 146.4,64.9 146.4,110.4 179.2,103.3 216.3,108 236.6,120.6 
		253.8,110.1 237.8,134 212.6,117.4 179.2,114.6 145.2,122.1 145.2,203.9 156.3,217.3 156.3,248.8 	"/>
	<polyline class="st1" points="67.4,117.4 134.8,203.9 100.8,114.6 	"/>
	<polygon class="st0" points="140,236.6 140,21.5 115.5,64.9 133.6,64.9 133.6,110.4 100.8,103.3 63.7,108 43.4,120.6 26.2,110.1 
		42.2,134 67.4,117.4 100.8,114.6 134.8,122.1 134.8,203.9 123.7,217.3 123.7,248.8 	"/>
	<polyline class="st1" points="212.6,117.4 145.2,203.9 179.2,114.6 	"/>
</g>
</svg>
